<svg xmlns="http://www.w3.org/2000/svg" xmlns:xlink="http://www.w3.org/1999/xlink" viewBox="0,0,256,256" width="64px" height="64px"><g fill="none" fill-rule="nonzero" stroke="none" stroke-width="1" stroke-linecap="butt" stroke-linejoin="miter" stroke-miterlimit="10" stroke-dasharray="" stroke-dashoffset="0" font-family="none" font-weight="none" font-size="none" text-anchor="none" style="mix-blend-mode: normal"><g transform="scale(2,2)"><path d="M76,12c-3.86599,0 -7,3.13401 -7,7c0,3.86599 3.13401,7 7,7c3.86599,0 7,-3.13401 7,-7c0,-3.86599 -3.13401,-7 -7,-7zM76,102c-3.86599,0 -7,3.13401 -7,7c0,3.86599 3.13401,7 7,7c3.86599,0 7,-3.13401 7,-7c0,-3.86599 -3.13401,-7 -7,-7zM58,26.2c0,-5 -4,-9 -9,-9c-5,0 -9,4 -9,9v0c-1.7,-1.3 -3.7,-2 -6,-2c-5.5,0 -10,4.5 -10,10c0,1.1 0.2,2.1 0.5,3c-0.2,0 -0.3,0 -0.5,0c-6.1,0 -11,4.9 -11,11c0,2.4 0.7,4.5 2,6.3c-4.2,2.7 -7,7.3 -7,12.7c0,5.3 2.8,10 6.9,12.6c-1.2,2.2 -1.9,4.7 -1.9,7.4c0,8.3 6.7,15 15,15c0.3,0 0.6,0 0.9,0c2,5.8 7.6,10 14.1,10c8.3,0 15,-6.7 15,-15c0,-8.2 0,-66 0,-71z" fill="#ffffff"></path><path d="M49,14.2c-5.1,0 -9.4,3.1 -11.2,7.6c-1.2,-0.4 -2.5,-0.6 -3.8,-0.6c-7.2,0 -13,5.8 -13,13c0,0 0,0 0,0.1c-6.3,1.4 -11.1,7 -11.1,13.7c0,2 0.4,3.9 1.2,5.7c-3.8,3.4 -6.1,8.3 -6.1,13.5c0,0.6 0,1.1 0.1,1.6c0,0.1 0,0.2 0,0.3c0.1,0.5 0.1,1.1 0.2,1.6c0,0.1 0,0.1 0,0.2c0.1,0.5 0.2,1 0.4,1.5v0.1c0.2,0.5 0.4,1 0.6,1.6c0,0 0,0.1 0.1,0.1c0.4,1 1,2 1.6,2.9c0,0 0,0.1 0.1,0.1c0.6,0.9 1.3,1.7 2.1,2.5c0.1,0.1 0.1,0.1 0.2,0.2c0.4,0.3 0.7,0.7 1.1,1c0.1,0.1 0.2,0.2 0.3,0.2c0.3,0.2 0.6,0.4 0.9,0.6c0.2,0.1 0.3,0.2 0.5,0.4l0.1,0.1c0.1,0 0.1,0.1 0.2,0.1c2.8,1.7 6,2.7 9.5,2.7c9.9,0 18,-8.1 18,-18v-5c0,-1.7 -1.3,-3 -3,-3c-1.7,0 -3,1.3 -3,3v5c0,6.6 -5.4,12 -12,12c-2.4,0 -4.6,-0.7 -6.5,-1.9c-0.8,-0.5 -1.6,-1.1 -2.2,-1.8c-0.1,-0.1 -0.2,-0.2 -0.2,-0.3c-0.2,-0.2 -0.4,-0.5 -0.6,-0.8c-0.1,-0.1 -0.2,-0.2 -0.3,-0.4c-0.2,-0.3 -0.4,-0.6 -0.6,-0.9c0,-0.1 -0.1,-0.1 -0.1,-0.2c-0.2,-0.4 -0.4,-0.8 -0.6,-1.2c-0.1,-0.1 -0.1,-0.3 -0.2,-0.4c-0.1,-0.3 -0.2,-0.6 -0.3,-0.9c0,-0.2 -0.1,-0.3 -0.1,-0.5c-0.1,-0.3 -0.1,-0.6 -0.2,-0.9c0,-0.1 0,-0.3 -0.1,-0.4c0,-0.2 0,-0.7 0,-1.2c0,-4.1 2.1,-7.9 5.6,-10.1c1.1,-0.7 1.6,-2 1.3,-3.3c-0.1,-0.4 -0.2,-0.9 -0.5,-1.3c-1,-1.4 -1.5,-2.9 -1.5,-4.6c0,-3.9 2.8,-7.1 6.5,-7.9c2.2,4.2 6.5,7.1 11.6,7.1c1.7,0 3,-1.3 3,-3c0,-1.7 -1.3,-3 -3,-3c-3.1,0 -5.8,-2.1 -6.7,-4.9c-0.1,-0.3 -0.2,-0.6 -0.2,-0.9c0,-0.1 0,-0.1 0,-0.2c0,-0.3 -0.1,-0.6 -0.1,-1c0,-3.9 3.1,-7 7,-7c1.5,0 3,0.5 4.2,1.4c0.9,0.7 2.1,0.8 3.1,0.3c1,-0.5 1.7,-1.5 1.7,-2.7c0,0 0,0 0,-0.1c0,-3.3 2.7,-5.9 6,-5.9c3.3,0 6,2.7 6,6v71c0,6.6 -5.4,12 -12,12c-5.1,0 -9.6,-3.2 -11.3,-8c-0.4,-1.3 -1.7,-2.1 -3,-2h-0.3c-0.1,0 -0.3,0 -0.4,0c-6.6,0 -12,-5.4 -12,-12c0,-1.7 -1.3,-3 -3,-3c-1.7,0 -3,1.3 -3,3c0,9.5 7.5,17.4 16.9,18c3,6.1 9.2,10 16.1,10c9.9,0 18,-8.1 18,-18v-71c0,-6.5 -5.4,-11.9 -12,-11.9z" fill="#4ea18d"></path><path d="M20,57.6h-5c-1.7,0 -3,-1.3 -3,-3c0,-1.7 1.3,-3 3,-3h5c1.7,0 3,1.3 3,3c0,1.7 -1.3,3 -3,3z" fill="#4ea18d"></path><g><path d="M111,57c-3.86599,0 -7,3.13401 -7,7c0,3.86599 3.13401,7 7,7c3.86599,0 7,-3.13401 7,-7c0,-3.86599 -3.13401,-7 -7,-7zM102,26c-3.86599,0 -7,3.13401 -7,7c0,3.86599 3.13401,7 7,7c3.86599,0 7,-3.13401 7,-7c0,-3.86599 -3.13401,-7 -7,-7zM102,88c-3.86599,0 -7,3.13401 -7,7c0,3.86599 3.13401,7 7,7c3.86599,0 7,-3.13401 7,-7c0,-3.86599 -3.13401,-7 -7,-7z" fill="#ffffff"></path><path d="M97,93c-0.8,0 -1.5,-0.3 -2.1,-0.9l-10.1,-10.1h-13.8c-1.7,0 -3,-1.3 -3,-3c0,-1.7 1.3,-3 3,-3h15c0.8,0 1.6,0.3 2.1,0.9l11,11c1.2,1.2 1.2,3.1 0,4.2c-0.6,0.6 -1.3,0.9 -2.1,0.9zM86,52h-15c-1.7,0 -3,-1.3 -3,-3c0,-1.7 1.3,-3 3,-3h13.8l10.1,-10.1c1.2,-1.2 3.1,-1.2 4.2,0c1.2,1.2 1.2,3.1 0,4.2l-11,11c-0.5,0.6 -1.3,0.9 -2.1,0.9zM104,67h-33c-1.7,0 -3,-1.3 -3,-3c0,-1.7 1.3,-3 3,-3h33c1.7,0 3,1.3 3,3c0,1.7 -1.3,3 -3,3z" fill="#589cd0"></path><path d="M111,74c-5.5,0 -10,-4.5 -10,-10c0,-5.5 4.5,-10 10,-10c5.5,0 10,4.5 10,10c0,5.5 -4.5,10 -10,10zM111,60c-2.2,0 -4,1.8 -4,4c0,2.2 1.8,4 4,4c2.2,0 4,-1.8 4,-4c0,-2.2 -1.8,-4 -4,-4zM102,43c-5.5,0 -10,-4.5 -10,-10c0,-5.5 4.5,-10 10,-10c5.5,0 10,4.5 10,10c0,5.5 -4.5,10 -10,10zM102,29c-2.2,0 -4,1.8 -4,4c0,2.2 1.8,4 4,4c2.2,0 4,-1.8 4,-4c0,-2.2 -1.8,-4 -4,-4zM76,29c-5.5,0 -10,-4.5 -10,-10c0,-5.5 4.5,-10 10,-10c5.5,0 10,4.5 10,10c0,5.5 -4.5,10 -10,10zM76,15c-2.2,0 -4,1.8 -4,4c0,2.2 1.8,4 4,4c2.2,0 4,-1.8 4,-4c0,-2.2 -1.8,-4 -4,-4zM102,105c-5.5,0 -10,-4.5 -10,-10c0,-5.5 4.5,-10 10,-10c5.5,0 10,4.5 10,10c0,5.5 -4.5,10 -10,10zM102,91c-2.2,0 -4,1.8 -4,4c0,2.2 1.8,4 4,4c2.2,0 4,-1.8 4,-4c0,-2.2 -1.8,-4 -4,-4zM76,119c-5.5,0 -10,-4.5 -10,-10c0,-5.5 4.5,-10 10,-10c5.5,0 10,4.5 10,10c0,5.5 -4.5,10 -10,10zM76,105c-2.2,0 -4,1.8 -4,4c0,2.2 1.8,4 4,4c2.2,0 4,-1.8 4,-4c0,-2.2 -1.8,-4 -4,-4z" fill="#589cd0"></path></g></g></g></svg>